<svg width="160" height="537" xmlns="http://www.w3.org/2000/svg" xmlns:xlink="http://www.w3.org/1999/xlink" overflow="hidden"><defs><clipPath id="clip0"><path d="M598 109 758 109 758 646 598 646Z" fill-rule="evenodd" clip-rule="evenodd"/></clipPath></defs><g clip-path="url(#clip0)" transform="translate(-598 -109)"><path d="M615.5 133.5 629 111.5 642.5 133.5Z" stroke="#000000" stroke-miterlimit="8" fill-rule="evenodd"/><rect x="601" y="190" width="58" height="136" stroke="#000000" stroke-width="4" stroke-miterlimit="8" fill="#FFFFFF"/><rect x="601" y="450" width="58" height="136" stroke="#000000" stroke-width="4" stroke-miterlimit="8" fill="#FFFFFF"/><path d="M630 326 630 450" stroke="#000000" stroke-width="4" stroke-miterlimit="8" fill="none" fill-rule="evenodd"/><path d="M631 586 631 643" stroke="#000000" stroke-width="4" stroke-miterlimit="8" fill="none" fill-rule="evenodd"/><path d="M630 133 630 190" stroke="#000000" stroke-width="4" stroke-miterlimit="8" fill="none" fill-rule="evenodd"/><path d="M604 643 657 643" stroke="#000000" stroke-width="4" stroke-miterlimit="8" fill="none" fill-rule="evenodd"/><path d="M630 391 739.5 391" stroke="#000000" stroke-width="4" stroke-miterlimit="8" fill="none" fill-rule="evenodd"/><text font-family="Calibri,Calibri_MSFontService,sans-serif" font-weight="400" font-size="24" transform="translate(660.707 381)">U<tspan x="15.3334" y="0">-</tspan><tspan x="22.6667" y="0">Out</tspan></text><path d="M731.5 391.5C731.5 387.082 735.082 383.5 739.5 383.5 743.918 383.5 747.5 387.082 747.5 391.5 747.5 395.918 743.918 399.5 739.5 399.5 735.082 399.5 731.5 395.918 731.5 391.5Z" stroke="#000000" stroke-miterlimit="8" fill-rule="evenodd"/><text font-family="Calibri,Calibri_MSFontService,sans-serif" font-weight="400" font-size="24" transform="matrix(-1.83697e-16 -1 1 -1.83697e-16 636.101 269)">R1<tspan x="-265" y="2.14185">R2</tspan></text></g></svg>